<?xml version="1.0" encoding="utf-8"?>
<!-- Created by UniConvertor 2.0rc5 (https://sk1project.net/) -->
<svg xmlns="http://www.w3.org/2000/svg" height="20.0px" width="21.0px" version="1.1" xmlns:xlink="http://www.w3.org/1999/xlink" id="2da1e618-a481-11ec-bf87-a8a1598cb569">

<g>
	<path style="fill:#ffffff;" d="M 0.0,0.0 L 0.0,6.0 1.0,6.0 C 2.577,4.083 4.083,2.577 6.0,1.0 3.9479,0.1258 2.2528,0.0472 0.0,0.0 Z" />
	<path style="fill:#7bcddd;" d="M 6.6667,0.3333 C 6.2222,0.7778 7.2778,0.7222 7.3333,0.6667 7.7778,0.2222 6.7222,0.2778 6.6667,0.3333 Z" />
	<path style="fill:#22aac5;" d="M 8.0,0.0 L 8.0,1.0 13.0,1.0 C 11.231,0.2211 9.9641,0.0876 8.0,0.0 Z" />
	<path style="fill:#36b3ca;" d="M 13.0,0.0 C 13.9802,1.7833 13.9076,1.5943 16.0,2.0 L 16.0,1.0 13.0,0.0 Z" />
	<path style="fill:#ffffff;" d="M 14.0,0.0 L 14.0,1.0 C 15.6352,1.5451 15.4549,1.3648 16.0,3.0 14.0143,2.5286 12.0632,2.0072 9.9961,2.1489 -10.0428,3.5223 13.8326,30.6118 18.6821,12.0 19.1788,10.0937 18.9931,7.9492 19.0,6.0 14.7222,8.3463 12.8337,12.9987 9.0,16.0 L 6.0,9.0 C 7.617,10.2989 8.6724,11.3898 10.0,13.0 13.0795,9.7818 15.239,6.0814 17.0,2.0 L 20.0,6.0 21.0,6.0 21.0,0.0 14.0,0.0 Z" />
	<path style="fill:#36b3ca;" d="M 8.0,19.0 L 8.0,18.0 C 0.6296,12.679 0.6296,7.321 8.0,2.0 -2.3294,-0.0802 -1.0485,16.437 8.0,19.0 Z" />
	<path style="fill:#92d5e3;" d="M 8.0,1.0 L 8.0,2.0 13.0,2.0 C 11.231,1.2211 9.9641,1.0876 8.0,1.0 Z" />
	<path style="fill:#9cd9e5;" d="M 3.0,2.0 L 4.0,3.0 3.0,2.0 Z" />
	<path style="fill:#aee0ea;" d="M 6.0,2.0 L 7.0,3.0 6.0,2.0 Z" />
	<path style="fill:#a8dee9;" d="M 14.6667,2.3333 C 14.2222,2.7778 15.2778,2.7222 15.3333,2.6667 15.7778,2.2222 14.7222,2.2778 14.6667,2.3333 Z" />
	<path style="fill:#aee0ea;" d="M 17.0,2.0 L 18.0,3.0 17.0,2.0 Z" />
	<path style="fill:#9cd9e5;" d="M 2.0,3.0 L 3.0,4.0 2.0,3.0 Z" />
	<path style="fill:#a8dee9;" d="M 16.0,3.0 L 17.0,4.0 16.0,3.0 Z" />
	<path style="fill:#2badc7;" d="M 17.0,3.0 C 15.2857,5.624 13.944,8.0133 13.0,11.0 L 14.0,11.0 18.0,5.0 C 19.41,9.1343 19.0668,11.8266 18.0,16.0 L 19.0,16.0 C 21.4307,10.9422 21.3431,6.8326 17.0,3.0 Z" />
	<path style="fill:#8ad2e0;" d="M 18.0,3.0 L 19.0,4.0 18.0,3.0 Z" />
	<path style="fill:#aee0ea;" d="M 19.0,4.0 L 20.0,5.0 19.0,4.0 Z" />
	<path style="fill:#7bcddd;" d="M 15.0,5.0 L 16.0,6.0 15.0,5.0 Z" />
	<path style="fill:#a2dbe7;" d="M 17.0,5.0 L 18.0,6.0 17.0,5.0 Z" />
	<path style="fill:#b7e4ec;" d="M 0.0,6.0 L 1.0,7.0 0.0,6.0 Z" />
	<path style="fill:#aee0ea;" d="M 2.0,6.0 L 3.0,7.0 2.0,6.0 Z" />
	<path style="fill:#a8dee9;" d="M 20.0,6.0 L 21.0,7.0 20.0,6.0 Z" />
	<path style="fill:#83cfdf;" d="M 1.0,8.0 L 1.0,12.0 2.0,12.0 C 1.8259,10.3148 1.683,9.506 1.0,8.0 Z" />
	<path style="fill:#92d5e3;" d="M 13.0,8.0 L 14.0,9.0 13.0,8.0 M 15.0,8.0 L 16.0,9.0 15.0,8.0 M 19.0,8.0 L 19.0,12.0 20.0,12.0 C 19.8259,10.3148 19.683,9.506 19.0,8.0 Z" />
	<path style="fill:#5ec2d5;" d="M 6.0,9.0 L 6.0,11.0 C 7.6352,10.4549 7.455,10.6352 8.0,9.0 L 6.0,9.0 Z" />
	<path style="fill:#36b3ca;" d="M 7.0,10.0 C 7.9311,12.7407 8.8186,14.104 11.0,16.0 11.89,14.2553 12.453,12.875 13.0,11.0 11.3648,11.5451 11.5451,11.3648 11.0,13.0 L 10.0,13.0 C 8.8966,11.5434 8.4566,11.1034 7.0,10.0 Z" />
	<path style="fill:#b7e4ec;" d="M 8.0,10.0 L 9.0,11.0 8.0,10.0 Z" />
	<path style="fill:#5ec2d5;" d="M 12.0,10.0 L 13.0,11.0 12.0,10.0 Z" />
	<path style="fill:#aee0ea;" d="M 11.0,11.0 L 12.0,12.0 11.0,11.0 Z" />
	<path style="fill:#6ec8da;" d="M 13.0,11.0 L 14.0,12.0 13.0,11.0 Z" />
	<path style="fill:#aee0ea;" d="M 7.0,12.0 L 8.0,13.0 7.0,12.0 Z" />
	<path style="fill:#ffffff;" d="M 0.0,13.0 L 0.0,20.0 6.0,20.0 6.0,19.0 C 3.6127,17.2254 1.89,15.2894 0.0,13.0 Z" />
	<path style="fill:#b7e4ec;" d="M 2.0,13.0 L 3.0,14.0 2.0,13.0 Z" />
	<path style="fill:#a8dee9;" d="M 12.0,13.0 L 13.0,14.0 12.0,13.0 Z" />
	<path style="fill:#9cd9e5;" d="M 20.0,13.0 L 21.0,14.0 20.0,13.0 Z" />
	<path style="fill:#ffffff;" d="M 20.0,14.0 C 18.4511,16.1357 17.1357,17.4511 15.0,19.0 L 15.0,20.0 21.0,20.0 C 20.9528,17.7472 20.8742,16.0521 20.0,14.0 Z" />
	<path style="fill:#b7e4ec;" d="M 1.0,15.0 L 2.0,16.0 1.0,15.0 M 9.0,15.0 L 10.0,16.0 9.0,15.0 Z" />
	<path style="fill:#92d5e3;" d="M 17.0,15.0 L 16.0,17.0 C 17.2627,16.0287 17.3919,16.3063 17.0,15.0 Z" />
	<path style="fill:#a2dbe7;" d="M 19.0,15.0 L 20.0,16.0 19.0,15.0 Z" />
	<path style="fill:#8ad2e0;" d="M 2.0,16.0 L 3.0,17.0 2.0,16.0 Z" />
	<path style="fill:#22aac5;" d="M 17.0,16.0 L 18.0,17.0 17.0,16.0 Z" />
	<path style="fill:#7bcddd;" d="M 18.0,16.0 L 19.0,17.0 18.0,16.0 Z" />
	<path style="fill:#8ad2e0;" d="M 3.0,17.0 L 4.0,18.0 3.0,17.0 Z" />
	<path style="fill:#36b3ca;" d="M 14.0,19.0 C 15.58,18.3164 15.7772,18.1952 17.0,17.0 15.42,17.6836 15.2228,17.8048 14.0,19.0 Z" />
	<path style="fill:#7bcddd;" d="M 17.0,17.0 L 18.0,18.0 17.0,17.0 Z" />
	<path style="fill:#b7e4ec;" d="M 4.0,18.0 L 5.0,19.0 4.0,18.0 Z" />
	<path style="fill:#a2dbe7;" d="M 8.0,18.0 L 8.0,19.0 13.0,19.0 C 11.231,18.2211 9.9641,18.0876 8.0,18.0 Z" />
	<path style="fill:#65c5d7;" d="M 13.0,18.0 L 13.0,20.0 15.0,20.0 C 14.4549,18.3648 14.6352,18.5451 13.0,18.0 Z" />
	<path style="fill:#a8dee9;" d="M 16.0,18.0 L 17.0,19.0 16.0,18.0 Z" />
	<path style="fill:#6ec8da;" d="M 6.6667,19.3333 C 6.2222,19.7778 7.2778,19.7222 7.3333,19.6667 7.7778,19.2222 6.7222,19.2778 6.6667,19.3333 Z" />
	<path style="fill:#22aac5;" d="M 8.0,19.0 L 8.0,20.0 13.0,20.0 C 11.231,19.2211 9.9641,19.0876 8.0,19.0 Z" />
</g>
</svg>