<?xml version="1.0" encoding="utf-8"?>
<!-- Created by UniConvertor 2.0rc5 (https://sk1project.net/) -->
<svg xmlns="http://www.w3.org/2000/svg" height="20.0px" width="21.0px" version="1.1" xmlns:xlink="http://www.w3.org/1999/xlink" id="fa16f9d2-a480-11ec-bd2d-a8a1598cb569">

<g>
	<path style="fill:#ffffff;" d="M 0.0,0.0 L 0.0,6.0 1.0,6.0 C 2.577,4.083 4.083,2.577 6.0,1.0 3.9479,0.1258 2.2528,0.0472 0.0,0.0 Z" />
	<path style="fill:#ff9e9e;" d="M 6.6667,0.3333 C 6.2222,0.7778 7.2778,0.7222 7.3333,0.6667 7.7778,0.2222 6.7222,0.2778 6.6667,0.3333 Z" />
	<path style="fill:#ff6b6b;" d="M 8.0,20.0 C 6.3046,17.021 2.6559,14.4462 1.9707,10.9992 0.3821,3.0076 10.6725,1.3749 16.0,2.0 4.1451,-6.0878 -6.6515,13.6472 8.0,20.0 Z" />
	<path style="fill:#ffffff;" d="M 14.0,0.0 L 14.0,1.0 C 15.6352,1.5451 15.4549,1.3648 16.0,3.0 14.0175,2.5282 12.058,2.0099 9.9954,2.0988 -10.1805,2.9681 13.7552,30.909 18.6821,12.0 19.1788,10.0937 18.9931,7.9492 19.0,6.0 14.9895,8.1997 13.1106,12.0357 11.0,16.0 L 10.0,16.0 6.0,9.0 C 7.617,10.2989 8.6724,11.3898 10.0,13.0 13.0795,9.7818 15.239,6.0814 17.0,2.0 L 20.0,6.0 21.0,6.0 21.0,0.0 14.0,0.0 Z" />
	<path style="fill:#ffaeae;" d="M 8.0,1.0 L 8.0,2.0 13.0,2.0 C 11.231,1.2211 9.9641,1.0876 8.0,1.0 Z" />
	<path style="fill:#ffb2b2;" d="M 3.0,2.0 L 4.0,3.0 3.0,2.0 Z" />
	<path style="fill:#ffbebe;" d="M 14.6667,2.3333 C 14.2222,2.7778 15.2778,2.7222 15.3333,2.6667 15.7778,2.2222 14.7222,2.2778 14.6667,2.3333 Z" />
	<path style="fill:#ffc8c8;" d="M 17.0,2.0 L 18.0,3.0 17.0,2.0 Z" />
	<path style="fill:#ffb2b2;" d="M 2.0,3.0 L 3.0,4.0 2.0,3.0 Z" />
	<path style="fill:#ffc2c2;" d="M 16.0,3.0 L 17.0,4.0 16.0,3.0 Z" />
	<path style="fill:#ff6161;" d="M 17.0,3.0 C 14.8075,6.2525 12.6775,9.4531 11.0,13.0 L 7.0,10.0 C 7.9311,12.7407 8.8186,14.104 11.0,16.0 L 18.0,5.0 C 19.983,10.8162 18.6338,14.0631 14.0,18.0 L 14.0,19.0 C 21.4765,16.3345 23.1348,8.1099 17.0,3.0 Z" />
	<path style="fill:#ffaaaa;" d="M 18.0,3.0 L 19.0,4.0 18.0,3.0 Z" />
	<path style="fill:#ffc2c2;" d="M 19.0,4.0 L 20.0,5.0 19.0,4.0 Z" />
	<path style="fill:#ff9e9e;" d="M 15.0,5.0 L 16.0,6.0 15.0,5.0 Z" />
	<path style="fill:#ffb9b9;" d="M 17.0,5.0 L 18.0,6.0 17.0,5.0 Z" />
	<path style="fill:#ffc8c8;" d="M 0.0,6.0 L 1.0,7.0 0.0,6.0 Z" />
	<path style="fill:#ffa3a3;" d="M 1.0,8.0 L 1.0,12.0 2.0,12.0 C 1.8259,10.3148 1.683,9.506 1.0,8.0 Z" />
	<path style="fill:#ffb2b2;" d="M 13.0,8.0 L 14.0,9.0 13.0,8.0 Z" />
	<path style="fill:#ffaeae;" d="M 15.0,8.0 L 16.0,9.0 15.0,8.0 M 19.0,8.0 L 19.0,12.0 20.0,12.0 C 19.8259,10.3148 19.683,9.506 19.0,8.0 Z" />
	<path style="fill:#ff8787;" d="M 6.0,9.0 L 6.0,11.0 C 7.6352,10.4549 7.455,10.6352 8.0,9.0 L 6.0,9.0 Z" />
	<path style="fill:#ffc8c8;" d="M 8.0,10.0 L 9.0,11.0 8.0,10.0 Z" />
	<path style="fill:#ffc2c2;" d="M 11.0,11.0 L 12.0,12.0 11.0,11.0 Z" />
	<path style="fill:#ff9797;" d="M 13.0,11.0 L 14.0,12.0 13.0,11.0 Z" />
	<path style="fill:#ffc2c2;" d="M 7.0,12.0 L 8.0,13.0 7.0,12.0 Z" />
	<path style="fill:#ffffff;" d="M 0.0,13.0 L 0.0,20.0 6.0,20.0 6.0,19.0 C 3.6127,17.2254 1.89,15.2894 0.0,13.0 Z" />
	<path style="fill:#ffc8c8;" d="M 2.0,13.0 L 3.0,14.0 2.0,13.0 Z" />
	<path style="fill:#ffbebe;" d="M 12.0,13.0 L 13.0,14.0 12.0,13.0 Z" />
	<path style="fill:#ffffff;" d="M 20.0,14.0 C 18.4511,16.1357 17.1357,17.4511 15.0,19.0 L 15.0,20.0 21.0,20.0 C 20.9528,17.7472 20.8742,16.0521 20.0,14.0 Z" />
	<path style="fill:#ffc8c8;" d="M 1.0,15.0 L 2.0,16.0 1.0,15.0 Z" />
	<path style="fill:#ffaeae;" d="M 17.0,15.0 L 18.0,16.0 17.0,15.0 Z" />
	<path style="fill:#ffb9b9;" d="M 19.0,15.0 L 20.0,16.0 19.0,15.0 Z" />
	<path style="fill:#ffaaaa;" d="M 16.0,16.0 L 17.0,17.0 16.0,16.0 M 3.0,17.0 L 4.0,18.0 3.0,17.0 Z" />
	<path style="fill:#ffc8c8;" d="M 4.0,18.0 L 5.0,19.0 4.0,18.0 Z" />
	<path style="fill:#ffb9b9;" d="M 8.0,18.0 L 8.0,19.0 13.0,19.0 C 11.231,18.2211 9.9641,18.0876 8.0,18.0 Z" />
	<path style="fill:#ff8d8d;" d="M 13.0,18.0 L 13.0,20.0 15.0,20.0 C 14.4549,18.3648 14.6352,18.5451 13.0,18.0 Z" />
	<path style="fill:#ffbebe;" d="M 16.0,18.0 L 17.0,19.0 16.0,18.0 Z" />
	<path style="fill:#ff5959;" d="M 8.0,19.0 L 8.0,20.0 13.0,20.0 C 11.231,19.2211 9.9641,19.0876 8.0,19.0 Z" />
</g>
</svg>